<?xml version="1.0" encoding="UTF-8" standalone="yes"?>
<svg xml:space="preserve" viewBox="0 0 240 240" fill-rule="evenodd" stroke-linejoin="round" stroke-miterlimit="2" version="1.2" baseProfile="tiny-ps" xmlns="http://www.w3.org/2000/svg">
  <title>bimi-svg-tiny-12-ps</title>
  <path d="M175.339 22.757c-29.721-16.452-66.338-16.452-96.058 0 0 32.906 18.309 63.311 48.029 79.763 29.72-16.452 48.029-46.857 48.029-79.763Z" fill="#2c2c2c" fill-rule="nonzero"/>
  <path d="M77.095 21.547c.161 34.254 19.357 66.132 50.215 83.394 30.857-17.262 50.053-49.14 50.215-83.394-31.019-16.992-69.411-16.992-100.43 0Zm50.215 85.15-.396-.22c-15.608-8.639-28.621-21.117-37.632-36.081-9.011-14.964-13.774-32.008-13.774-49.288v-.439l.397-.22c15.607-8.64 33.383-13.206 51.405-13.206s35.797 4.566 51.405 13.206l.396.22.001.439c0 17.28-4.764 34.324-13.774 49.288-9.012 14.964-22.024 27.442-37.632 36.081l-.396.22Z" fill="#b34e24" fill-rule="nonzero"/>
  <path d="M149.573 54.427c-.563.222-1.014.4-1.524.603v-4.707l1.524.532v3.572Zm-5.985 3.111V55.47h-2.093v-7.395h3.614c.04.226-.01.471-.01.717.009 6.695.014 13.39.006 20.085-.001 1.528-.688 2.638-2.165 3.335-4.207 1.982-8.392 4.008-12.587 6.011a5.431 5.431 0 0 1-2.499.553 5.435 5.435 0 0 1-2.5-.553c-4.195-2.003-8.38-4.029-12.587-6.011-1.476-.697-2.163-1.807-2.165-3.335-.008-6.695-.003-13.39.006-20.085 0-.246.08-.491.12-.717h3.485v7.395h-2.094v2.068l.01.852v1.955h4.776v-2.171h21.898v2.171h4.775V58.39l.01-.852ZM111.816 44.57c3.461-5.52 6.892-11.058 10.404-16.548 1.289-2.015 3.361-2.848 5.634-2.793 2.272-.055 4.345.778 5.633 2.793 3.513 5.49 6.943 11.028 10.404 16.548.14.221.244.46.41.781h-5.182v9.132h-22.531v-9.132h-5.182c.166-.321.271-.56.41-.781Zm-4.157 10.46c-.51-.203-.962-.381-1.525-.603v-3.572l1.525-.532v4.707Zm45.083-4.945c-.324-1.214-1.119-1.955-2.41-2.198-.27-.049-.538-.113-.801-.183-1.052-.28-1.11-.441-1.237-1.492-.091-.74-.227-1.552-.618-2.172a1857.527 1857.527 0 0 0-11.65-18.251c-.45-.697-1.049-1.379-1.742-1.843-2.005-1.343-4.17-1.903-6.43-1.87-2.261-.033-4.426.527-6.43 1.87-.694.464-1.293 1.146-1.743 1.843a1876.326 1876.326 0 0 0-11.65 18.251c-.39.62-.526 1.432-.617 2.172-.128 1.051-.185 1.212-1.237 1.492-.264.07-.532.134-.801.183-1.292.243-2.087.984-2.411 2.198-.442 1.66-.414 3.315.023 4.974.358 1.35 1.233 2.133 2.663 2.412 1.439.28 1.437.32 1.437 1.711 0 3.214-.008 6.427.003 9.641.009 2.673 1.204 4.621 3.767 5.817 4.081 1.903 8.154 3.832 12.187 5.831 1.616.8 3.213 1.179 4.809 1.164 1.596.015 3.193-.364 4.808-1.164 4.033-1.999 8.106-3.928 12.187-5.831 2.564-1.196 3.758-3.144 3.767-5.817.011-3.214.003-6.427.003-9.641 0-1.391-.001-1.431 1.437-1.711 1.431-.279 2.306-1.062 2.663-2.412.438-1.659.465-3.314.023-4.974Z" fill="#b34e24" fill-rule="nonzero"/>
  <path d="M137.676 47.553v-2.136a313.03 313.03 0 0 0-9.822-.15c-3.269-.001-6.539.048-9.823.15v2.136h19.645ZM127.861 68.408h-.015c-1.2.004-2.242-.964-2.23-2.074.011-1.209.918-2.049 2.212-2.055h.051c1.295.006 2.202.846 2.212 2.055.012 1.11-1.029 2.078-2.23 2.074Zm-.007-7.035c-3.528.139-5.195 2.43-5.237 4.894-.046 2.694 2.153 5.158 5.219 5.149h.036c3.066.009 5.264-2.455 5.218-5.149-.042-2.464-1.709-4.755-5.236-4.894ZM140.674 65.708c-1.61-.004-2.807 1.135-2.801 2.669.006 1.366 1.101 2.317 2.665 2.315 1.672-.003 2.749-.935 2.75-2.38.001-1.465-1.138-2.598-2.614-2.604ZM127.839 30.494l.015.001.015-.001c.823-.042 1.677.721 1.691 1.513.014.763-.715 1.495-1.508 1.514-.068.001-.133 0-.198-.006-.065.006-.131.007-.199.006-.793-.019-1.521-.751-1.508-1.514.014-.792.868-1.555 1.692-1.513Zm-.19 5.345c.069-.002.138-.005.205-.01.066.005.136.008.204.01 2.1.053 3.9-1.71 3.882-3.949-.014-1.747-1.499-3.617-3.968-3.688-.04-.002-.079-.002-.118-.002-.04 0-.079 0-.118.002-2.47.071-3.955 1.941-3.969 3.688-.018 2.239 1.782 4.002 3.882 3.949ZM115.033 65.708c-1.475.006-2.615 1.139-2.614 2.604.001 1.445 1.079 2.377 2.751 2.38 1.564.002 2.658-.949 2.664-2.315.007-1.534-1.191-2.673-2.801-2.669ZM39.79 109.888h13.619v46.098H39.79v-46.098Zm.963 28.12H20.257v-10.8h20.496v10.8Zm-19.464 17.978H7.67v-46.098h13.619v46.098ZM63.107 109.888h13.619v46.098H63.107zM86.423 155.986v-46.098h11.211l26.481 30.688h-5.296v-30.688h13.344v46.098h-11.212l-26.549-30.688h5.296v30.688H86.423ZM173.981 149.4v-17.451h12.105v19.097l-12.105-1.646Zm-8.116 7.507c-3.852 0-7.383-.583-10.593-1.744-3.21-1.163-6.007-2.809-8.391-4.939a22.505 22.505 0 0 1-5.571-7.607c-1.33-2.941-1.994-6.167-1.994-9.68 0-3.512.664-6.739 1.994-9.68a22.331 22.331 0 0 1 5.606-7.607c2.407-2.129 5.237-3.775 8.494-4.939 3.256-1.162 6.855-1.745 10.799-1.745 4.493 0 8.529.725 12.105 2.174 3.577 1.448 6.534 3.534 8.873 6.255l-8.666 7.508c-1.651-1.756-3.429-3.051-5.331-3.886-1.903-.833-4.023-1.251-6.362-1.251-2.063 0-3.944.308-5.64.922-1.697.616-3.142 1.505-4.333 2.667-1.193 1.164-2.122 2.558-2.786 4.182-.665 1.625-.997 3.424-.997 5.4 0 1.932.332 3.71.997 5.334.664 1.625 1.593 3.019 2.786 4.182 1.191 1.164 2.624 2.064 4.298 2.7 1.674.637 3.519.954 5.537.954 2.017 0 3.99-.317 5.915-.954 1.926-.636 3.875-1.723 5.847-3.26l7.634 9.153c-2.797 1.889-5.996 3.338-9.595 4.347-3.6 1.01-7.142 1.514-10.626 1.514ZM207.27 127.734h22.353v9.681H207.27v-9.681Zm.963 18.11h25.175v10.142h-38.587v-46.098h37.692v10.142h-24.28v25.814Z" fill="#b34e24" fill-rule="nonzero"/>
  <path d="M39.677 167.108h13.577v45.958H39.677v-45.958Zm.96 28.036H20.203v-10.767h20.434v10.767Zm-19.405 17.922H7.655v-45.958h13.577v45.958ZM62.922 167.108h13.577v45.958H62.922zM99.743 202.694h8.434c2.788 0 5.2-.503 7.234-1.51 2.034-1.007 3.623-2.463 4.766-4.368 1.142-1.901 1.714-4.144 1.714-6.727 0-2.671-.572-4.934-1.714-6.798-1.143-1.86-2.732-3.291-4.766-4.298-2.034-1.006-4.446-1.51-7.234-1.51h-8.434v25.211Zm-13.577 10.372v-45.958h22.697c5.256 0 9.896.944 13.92 2.824 4.022 1.885 7.165 4.531 9.428 7.942 2.263 3.416 3.394 7.464 3.394 12.148 0 4.726-1.131 8.808-3.394 12.244s-5.406 6.095-9.428 7.975c-4.024 1.885-8.664 2.825-13.92 2.825H86.166ZM155.215 184.901H177.5v9.652h-22.285v-9.652Zm.96 18.055h25.096v10.11h-38.467v-45.958h37.576v10.113h-24.205v25.735ZM218.504 213.066l-11.931-16.741h14.469l12.001 16.741h-14.539Zm-16.045-16.217-6.102-6.04h13.576c2.835 0 4.96-.591 6.377-1.773 1.416-1.181 2.125-2.845 2.125-4.988 0-2.059-.709-3.686-2.125-4.892-1.417-1.203-3.542-1.806-6.377-1.806h-13.576l6.102-5.974v25.473Zm-13.577 16.217v-45.958h21.875c4.388 0 8.182.682 11.38 2.038 3.202 1.356 5.657 3.316 7.373 5.874 1.712 2.559 2.573 5.571 2.573 9.028 0 3.545-.861 6.565-2.573 9.061-1.716 2.492-4.171 4.41-7.373 5.741-3.198 1.336-6.992 2.006-11.38 2.006h-14.4l6.102-5.517v17.727h-13.577Z" fill="#2c2c2c" fill-rule="nonzero"/>
  <path d="M10.77 229.494v-9.602H6.827v-1.793h10.097v1.793H12.98v9.602h-2.21ZM35.962 218.099h2.193v11.395h-2.193v-11.395Zm.17 6.511h-6.494v-1.806h6.494v1.806Zm-6.324 4.884h-2.209v-11.395h2.209v11.395ZM52.416 222.837h5.915v1.739h-5.915v-1.739Zm.17 4.864H59.3v1.793h-8.923v-11.395h8.686v1.793h-6.477v7.809ZM90.05 227.8c.6 0 1.153-.099 1.658-.295a3.842 3.842 0 0 0 2.192-2.097c.21-.491.315-1.027.315-1.614 0-.582-.102-1.119-.307-1.61a3.658 3.658 0 0 0-.875-1.269 3.97 3.97 0 0 0-1.325-.828 4.567 4.567 0 0 0-1.658-.295c-.601 0-1.158.1-1.674.295a3.811 3.811 0 0 0-1.335.837 4.035 4.035 0 0 0-.883 1.268 3.89 3.89 0 0 0-.324 1.602c0 .578.108 1.111.324 1.598.215.486.509.915.883 1.277.374.362.819.645 1.335.836a4.672 4.672 0 0 0 1.674.295Zm0 1.856a7.231 7.231 0 0 1-2.558-.441 6.1 6.1 0 0 1-2.048-1.236 5.616 5.616 0 0 1-1.343-1.863 5.628 5.628 0 0 1-.476-2.322c0-.844.158-1.622.476-2.334a5.545 5.545 0 0 1 1.343-1.855 6.278 6.278 0 0 1 2.039-1.228c.782-.295 1.638-.44 2.567-.44.918 0 1.768.145 2.55.432a6.08 6.08 0 0 1 2.032 1.219 5.6 5.6 0 0 1 1.333 1.864c.318.715.477 1.498.477 2.342 0 .849-.159 1.627-.477 2.338a5.692 5.692 0 0 1-1.333 1.864c-.573.533-1.25.94-2.032 1.227a7.347 7.347 0 0 1-2.55.433ZM115.581 229.494l-3.008-4.136h2.362l3.026 4.136h-2.38Zm-5.575-4.036-.969-1.027h3.553c.974 0 1.708-.2 2.201-.604.493-.399.739-.961.739-1.676 0-.716-.246-1.269-.739-1.668-.493-.396-1.227-.591-2.201-.591h-3.553l.969-1.044v6.61Zm-2.21 4.036v-11.395h4.895c1.055 0 1.958.162 2.712.482.754.321 1.334.782 1.742 1.39.408.607.612 1.335.612 2.18 0 .836-.204 1.552-.612 2.151-.408.595-.988 1.056-1.742 1.381-.754.329-1.657.491-2.712.491h-3.654l.969-.945v4.265h-2.21ZM129.231 218.099h2.21v11.395h-2.21zM151.788 227.929v-4.247h2.073v4.526l-2.073-.279Zm-2.568 1.727a7.328 7.328 0 0 1-2.558-.433 6.055 6.055 0 0 1-2.031-1.227 5.692 5.692 0 0 1-1.343-1.855c-.317-.708-.476-1.486-.476-2.347 0-.857.159-1.635.476-2.342a5.648 5.648 0 0 1 1.351-1.856 6.172 6.172 0 0 1 2.04-1.227c.776-.287 1.641-.432 2.593-.432.997 0 1.901.158 2.711.474.81.312 1.493.774 2.048 1.381l-1.393 1.302a4.645 4.645 0 0 0-1.505-.986 4.896 4.896 0 0 0-1.777-.316c-.634 0-1.215.1-1.742.295-.527.192-.983.47-1.368.828a3.811 3.811 0 0 0-.901 1.269 3.971 3.971 0 0 0-.323 1.61c0 .578.108 1.111.323 1.606.215.495.515.919.901 1.277a3.99 3.99 0 0 0 1.36.828 4.89 4.89 0 0 0 1.734.295c.588 0 1.158-.091 1.708-.27a4.639 4.639 0 0 0 1.572-.903l1.241 1.581a6.548 6.548 0 0 1-2.142 1.082 8.643 8.643 0 0 1-2.499.366ZM165.794 218.099h2.21v11.395h-2.21zM180.225 229.494v-11.395h1.819l7.462 8.79h-.901v-8.79h2.176v11.395h-1.819l-7.445-8.791h.901v8.791h-2.193ZM203.785 226.856l.612-1.66h6.407l.596 1.66h-7.615Zm-2.465 2.638 5.354-11.395h2.176l5.37 11.395h-2.329l-4.588-10.272h.884l-4.606 10.272h-2.261ZM224.744 229.494v-11.395h2.207v9.602h6.222v1.793h-8.429Z" fill="#4e697a" fill-rule="nonzero"/>
  <path d="M214.271 106.697v-8.779h-3.589v-1.246h8.66v1.246h-3.589v8.779h-1.482ZM220.971 106.697V96.672h1.226l4.697 7.576h-.656l4.636-7.576h1.225l.018 10.025h-1.439l-.013-7.863h.344l-4.128 6.646h-.691l-4.158-6.646h.378v7.863h-1.439Z" fill-rule="nonzero"/>
</svg>